<svg width="75" height="109" viewBox="0 0 75 109" fill="none" xmlns="http://www.w3.org/2000/svg">
<path d="M74.7468 63.3761C74.7468 69.78 73.7438 75.7209 71.7378 81.1989C69.8089 86.5998 67.0699 91.3062 63.5208 95.3183C60.0488 99.2532 55.8439 102.378 50.906 104.693C46.0452 106.93 40.6444 108.049 34.7034 108.049C29.6884 108.049 25.0976 107.162 20.9313 105.387C16.8421 103.535 13.2929 101.028 10.2839 97.8644C7.27487 94.6239 4.96022 90.7661 3.33997 86.2911C1.71971 81.739 0.909584 76.7625 0.909584 71.3617C0.909584 49.0639 6.61905 30.3924 18.038 15.3472C21.8957 10.255 25.3677 6.43581 28.4539 3.88969C31.6172 1.34358 34.5491 0.1091 37.2495 0.186249L40.0271 0.301987C45.3508 0.687759 50.1344 2.53947 54.3779 5.85713C58.6986 9.1748 62.3249 13.6498 65.2568 19.2821C68.2658 24.8372 70.5805 31.3954 72.2007 38.9566C73.8981 46.4406 74.7468 54.5805 74.7468 63.3761ZM67.2242 64.4177C67.2242 56.8565 63.9452 48.5624 57.387 39.5353C50.5202 29.9681 43.3834 25.1844 35.9765 25.1844C30.0356 25.1844 23.7474 30.6624 17.1121 41.6184C10.8626 51.8029 7.73779 60.2514 7.73779 66.9638C7.73779 77.997 16.302 83.5136 33.4304 83.5136C38.4455 83.5136 42.9976 83.0892 47.0868 82.2405C51.2532 81.3918 54.8409 80.1573 57.8499 78.5371C60.859 76.8397 63.1736 74.7951 64.7939 72.4033C66.4141 70.0115 67.2242 67.3496 67.2242 64.4177Z" fill="black"/>
</svg>
